<svg width="48" height="48" viewBox="0 0 48 48" fill="none" xmlns="http://www.w3.org/2000/svg">
<path d="M17.5 22H16.5V23H17.5V22Z" fill="black"/>
<path d="M18.5 22H17.5V23H18.5V22Z" fill="black"/>
<path d="M19.5 22H18.5V23H19.5V22Z" fill="black"/>
<path d="M20.5 22H19.5V23H20.5V22Z" fill="black"/>
<path d="M21.5 22H20.5V23H21.5V22Z" fill="black"/>
<path d="M22.5 22H21.5V23H22.5V22Z" fill="black"/>
<path d="M23.5 22H22.5V23H23.5V22Z" fill="black"/>
<path d="M24.5 22H23.5V23H24.5V22Z" fill="black"/>
<path d="M25.5 22H24.5V23H25.5V22Z" fill="black"/>
<path d="M26.5 22H25.5V23H26.5V22Z" fill="black"/>
<path d="M27.5 22H26.5V23H27.5V22Z" fill="black"/>
<path d="M28.5 23H27.5V24H28.5V23Z" fill="black"/>
<path d="M28.5 24H27.5V25H28.5V24Z" fill="black"/>
<path d="M29.5 25H28.5V26H29.5V25Z" fill="black"/>
<path d="M29.5 26H28.5V27H29.5V26Z" fill="black"/>
<path d="M30.5 27H29.5V28H30.5V27Z" fill="black"/>
<path d="M31.5 28H30.5V29H31.5V28Z" fill="black"/>
<path d="M30.5 28H29.5V29H30.5V28Z" fill="black"/>
<path d="M29.5 28H28.5V29H29.5V28Z" fill="black"/>
<path d="M28.5 28H27.5V29H28.5V28Z" fill="black"/>
<path d="M27.5 28H26.5V29H27.5V28Z" fill="black"/>
<path d="M26.5 28H25.5V29H26.5V28Z" fill="black"/>
<path d="M25.5 28H24.5V29H25.5V28Z" fill="black"/>
<path d="M24.5 28H23.5V29H24.5V28Z" fill="black"/>
<path d="M23.5 28H22.5V29H23.5V28Z" fill="black"/>
<path d="M22.5 28H21.5V29H22.5V28Z" fill="black"/>
<path d="M21.5 28H20.5V29H21.5V28Z" fill="black"/>
<path d="M20.5 28H19.5V29H20.5V28Z" fill="black"/>
<path d="M19.5 27H18.5V28H19.5V27Z" fill="black"/>
<path d="M19.5 26H18.5V27H19.5V26Z" fill="black"/>
<path d="M18.5 25H17.5V26H18.5V25Z" fill="black"/>
<path d="M18.5 24H17.5V25H18.5V24Z" fill="black"/>
<path d="M17.5 23H16.5V24H17.5V23Z" fill="black"/>
<path d="M19.5 21H18.5V22H19.5V21Z" fill="black"/>
<path d="M19.5 20H18.5V21H19.5V20Z" fill="black"/>
<path d="M20.5 19H19.5V20H20.5V19Z" fill="black"/>
<path d="M21.5 19H20.5V20H21.5V19Z" fill="black"/>
<path d="M22.5 19H21.5V20H22.5V19Z" fill="black"/>
<path d="M23.5 19H22.5V20H23.5V19Z" fill="black"/>
<path d="M24.5 20H23.5V21H24.5V20Z" fill="black"/>
<path d="M25.5 20H24.5V21H25.5V20Z" fill="black"/>
<path d="M26.5 20H25.5V21H26.5V20Z" fill="black"/>
<path d="M27.5 20H26.5V21H27.5V20Z" fill="black"/>
<path d="M28.5 20H27.5V21H28.5V20Z" fill="black"/>
<path d="M29.5 20H28.5V21H29.5V20Z" fill="black"/>
<path d="M30.5 20H29.5V21H30.5V20Z" fill="black"/>
<path d="M31.5 21H30.5V22H31.5V21Z" fill="black"/>
<path d="M31.5 22H30.5V23H31.5V22Z" fill="black"/>
<path d="M31.5 23H30.5V24H31.5V23Z" fill="black"/>
<path d="M31.5 24H30.5V25H31.5V24Z" fill="black"/>
<path d="M31.5 25H30.5V26H31.5V25Z" fill="black"/>
<path d="M31.5 26H30.5V27H31.5V26Z" fill="black"/>
<path d="M31.5 27H30.5V28H31.5V27Z" fill="black"/>
</svg>
