<svg width="48" height="48" viewBox="0 0 48 48" fill="none" xmlns="http://www.w3.org/2000/svg">
<path d="M11.5 8H12.5V9H11.5V8Z" fill="black"/>
<path d="M10.5 9H11.5V10H10.5V9Z" fill="black"/>
<path d="M36.5 9H37.5V10H36.5V9Z" fill="black"/>
<path d="M10.5 10H11.5V11H10.5V10Z" fill="black"/>
<path d="M36.5 10H37.5V11H36.5V10Z" fill="black"/>
<path d="M10.5 11H11.5V12H10.5V11Z" fill="black"/>
<path d="M12.5 11H13.5V12H12.5V11Z" fill="black"/>
<path d="M34.5 11H35.5V12H34.5V11Z" fill="black"/>
<path d="M36.5 11H37.5V12H36.5V11Z" fill="black"/>
<path d="M10.5 12H11.5V13H10.5V12Z" fill="black"/>
<path d="M12.5 12H13.5V13H12.5V12Z" fill="black"/>
<path d="M34.5 12H35.5V13H34.5V12Z" fill="black"/>
<path d="M36.5 12H37.5V13H36.5V12Z" fill="black"/>
<path d="M10.5 13H11.5V14H10.5V13Z" fill="black"/>
<path d="M12.5 13H13.5V14H12.5V13Z" fill="black"/>
<path d="M14.5 13H15.5V14H14.5V13Z" fill="black"/>
<path d="M16.5 13H17.5V14H16.5V13Z" fill="black"/>
<path d="M15.5 14H16.5V15H15.5V14Z" fill="black"/>
<path d="M16.5 15H17.5V16H16.5V15Z" fill="black"/>
<path d="M15.5 16H16.5V17H15.5V16Z" fill="black"/>
<path d="M16.5 17H17.5V18H16.5V17Z" fill="black"/>
<path d="M16.5 19H17.5V20H16.5V19Z" fill="black"/>
<path d="M16.5 21H17.5V22H16.5V21Z" fill="black"/>
<path d="M16.5 23H17.5V24H16.5V23Z" fill="black"/>
<path d="M15.5 18H16.5V19H15.5V18Z" fill="black"/>
<path d="M15.5 20H16.5V21H15.5V20Z" fill="black"/>
<path d="M15.5 22H16.5V23H15.5V22Z" fill="black"/>
<path d="M18.5 13H19.5V14H18.5V13Z" fill="black"/>
<path d="M17.5 14H18.5V15H17.5V14Z" fill="black"/>
<path d="M18.5 15H19.5V16H18.5V15Z" fill="black"/>
<path d="M17.5 16H18.5V17H17.5V16Z" fill="black"/>
<path d="M18.5 17H19.5V18H18.5V17Z" fill="black"/>
<path d="M18.5 19H19.5V20H18.5V19Z" fill="black"/>
<path d="M18.5 21H19.5V22H18.5V21Z" fill="black"/>
<path d="M18.5 23H19.5V24H18.5V23Z" fill="black"/>
<path d="M17.5 18H18.5V19H17.5V18Z" fill="black"/>
<path d="M17.5 20H18.5V21H17.5V20Z" fill="black"/>
<path d="M17.5 22H18.5V23H17.5V22Z" fill="black"/>
<path d="M20.5 13H21.5V14H20.5V13Z" fill="black"/>
<path d="M19.5 14H20.5V15H19.5V14Z" fill="black"/>
<path d="M20.5 15H21.5V16H20.5V15Z" fill="black"/>
<path d="M19.5 16H20.5V17H19.5V16Z" fill="black"/>
<path d="M20.5 17H21.5V18H20.5V17Z" fill="black"/>
<path d="M20.5 19H21.5V20H20.5V19Z" fill="black"/>
<path d="M20.5 21H21.5V22H20.5V21Z" fill="black"/>
<path d="M20.5 23H21.5V24H20.5V23Z" fill="black"/>
<path d="M19.5 18H20.5V19H19.5V18Z" fill="black"/>
<path d="M19.5 20H20.5V21H19.5V20Z" fill="black"/>
<path d="M19.5 22H20.5V23H19.5V22Z" fill="black"/>
<path d="M22.5 13H23.5V14H22.5V13Z" fill="black"/>
<path d="M21.5 14H22.5V15H21.5V14Z" fill="black"/>
<path d="M22.5 15H23.5V16H22.5V15Z" fill="black"/>
<path d="M21.5 16H22.5V17H21.5V16Z" fill="black"/>
<path d="M22.5 17H23.5V18H22.5V17Z" fill="black"/>
<path d="M22.5 19H23.5V20H22.5V19Z" fill="black"/>
<path d="M22.5 21H23.5V22H22.5V21Z" fill="black"/>
<path d="M22.5 23H23.5V24H22.5V23Z" fill="black"/>
<path d="M21.5 18H22.5V19H21.5V18Z" fill="black"/>
<path d="M21.5 20H22.5V21H21.5V20Z" fill="black"/>
<path d="M21.5 22H22.5V23H21.5V22Z" fill="black"/>
<path d="M24.5 13H25.5V14H24.5V13Z" fill="black"/>
<path d="M23.5 14H24.5V15H23.5V14Z" fill="black"/>
<path d="M24.5 15H25.5V16H24.5V15Z" fill="black"/>
<path d="M23.5 16H24.5V17H23.5V16Z" fill="black"/>
<path d="M24.5 17H25.5V18H24.5V17Z" fill="black"/>
<path d="M24.5 19H25.5V20H24.5V19Z" fill="black"/>
<path d="M24.5 21H25.5V22H24.5V21Z" fill="black"/>
<path d="M24.5 23H25.5V24H24.5V23Z" fill="black"/>
<path d="M23.5 18H24.5V19H23.5V18Z" fill="black"/>
<path d="M23.5 20H24.5V21H23.5V20Z" fill="black"/>
<path d="M23.5 22H24.5V23H23.5V22Z" fill="black"/>
<path d="M26.5 13H27.5V14H26.5V13Z" fill="black"/>
<path d="M25.5 14H26.5V15H25.5V14Z" fill="black"/>
<path d="M26.5 15H27.5V16H26.5V15Z" fill="black"/>
<path d="M25.5 16H26.5V17H25.5V16Z" fill="black"/>
<path d="M26.5 17H27.5V18H26.5V17Z" fill="black"/>
<path d="M26.5 19H27.5V20H26.5V19Z" fill="black"/>
<path d="M26.5 21H27.5V22H26.5V21Z" fill="black"/>
<path d="M26.5 23H27.5V24H26.5V23Z" fill="black"/>
<path d="M25.5 18H26.5V19H25.5V18Z" fill="black"/>
<path d="M25.5 20H26.5V21H25.5V20Z" fill="black"/>
<path d="M25.5 22H26.5V23H25.5V22Z" fill="black"/>
<path d="M28.5 13H29.5V14H28.5V13Z" fill="black"/>
<path d="M27.5 14H28.5V15H27.5V14Z" fill="black"/>
<path d="M28.5 15H29.5V16H28.5V15Z" fill="black"/>
<path d="M27.5 16H28.5V17H27.5V16Z" fill="black"/>
<path d="M28.5 17H29.5V18H28.5V17Z" fill="black"/>
<path d="M28.5 19H29.5V20H28.5V19Z" fill="black"/>
<path d="M28.5 21H29.5V22H28.5V21Z" fill="black"/>
<path d="M28.5 23H29.5V24H28.5V23Z" fill="black"/>
<path d="M27.5 18H28.5V19H27.5V18Z" fill="black"/>
<path d="M27.5 20H28.5V21H27.5V20Z" fill="black"/>
<path d="M27.5 22H28.5V23H27.5V22Z" fill="black"/>
<path d="M30.5 13H31.5V14H30.5V13Z" fill="black"/>
<path d="M29.5 14H30.5V15H29.5V14Z" fill="black"/>
<path d="M30.5 15H31.5V16H30.5V15Z" fill="black"/>
<path d="M31.5 14H32.5V15H31.5V14Z" fill="black"/>
<path d="M31.5 16H32.5V17H31.5V16Z" fill="black"/>
<path d="M31.5 18H32.5V19H31.5V18Z" fill="black"/>
<path d="M31.5 20H32.5V21H31.5V20Z" fill="black"/>
<path d="M31.5 22H32.5V23H31.5V22Z" fill="black"/>
<path d="M29.5 16H30.5V17H29.5V16Z" fill="black"/>
<path d="M30.5 17H31.5V18H30.5V17Z" fill="black"/>
<path d="M30.5 19H31.5V20H30.5V19Z" fill="black"/>
<path d="M30.5 21H31.5V22H30.5V21Z" fill="black"/>
<path d="M30.5 23H31.5V24H30.5V23Z" fill="black"/>
<path d="M29.5 18H30.5V19H29.5V18Z" fill="black"/>
<path d="M29.5 20H30.5V21H29.5V20Z" fill="black"/>
<path d="M29.5 22H30.5V23H29.5V22Z" fill="black"/>
<path d="M32.5 13H33.5V14H32.5V13Z" fill="black"/>
<path d="M34.5 13H35.5V14H34.5V13Z" fill="black"/>
<path d="M36.5 13H37.5V14H36.5V13Z" fill="black"/>
<path d="M10.5 14H11.5V15H10.5V14Z" fill="black"/>
<path d="M12.5 14H13.5V15H12.5V14Z" fill="black"/>
<path d="M14.5 14H15.5V15H14.5V14Z" fill="black"/>
<path d="M32.5 14H33.5V15H32.5V14Z" fill="black"/>
<path d="M34.5 14H35.5V15H34.5V14Z" fill="black"/>
<path d="M36.5 14H37.5V15H36.5V14Z" fill="black"/>
<path d="M10.5 15H11.5V16H10.5V15Z" fill="black"/>
<path d="M12.5 15H13.5V16H12.5V15Z" fill="black"/>
<path d="M14.5 15H15.5V16H14.5V15Z" fill="black"/>
<path d="M32.5 15H33.5V16H32.5V15Z" fill="black"/>
<path d="M34.5 15H35.5V16H34.5V15Z" fill="black"/>
<path d="M36.5 15H37.5V16H36.5V15Z" fill="black"/>
<path d="M10.5 16H11.5V17H10.5V16Z" fill="black"/>
<path d="M12.5 16H13.5V17H12.5V16Z" fill="black"/>
<path d="M14.5 16H15.5V17H14.5V16Z" fill="black"/>
<path d="M32.5 16H33.5V17H32.5V16Z" fill="black"/>
<path d="M34.5 16H35.5V17H34.5V16Z" fill="black"/>
<path d="M36.5 16H37.5V17H36.5V16Z" fill="black"/>
<path d="M10.5 17H11.5V18H10.5V17Z" fill="black"/>
<path d="M12.5 17H13.5V18H12.5V17Z" fill="black"/>
<path d="M14.5 17H15.5V18H14.5V17Z" fill="black"/>
<path d="M32.5 17H33.5V18H32.5V17Z" fill="black"/>
<path d="M34.5 17H35.5V18H34.5V17Z" fill="black"/>
<path d="M36.5 17H37.5V18H36.5V17Z" fill="black"/>
<path d="M10.5 18H11.5V19H10.5V18Z" fill="black"/>
<path d="M12.5 18H13.5V19H12.5V18Z" fill="black"/>
<path d="M14.5 18H15.5V19H14.5V18Z" fill="black"/>
<path d="M32.5 18H33.5V19H32.5V18Z" fill="black"/>
<path d="M34.5 18H35.5V19H34.5V18Z" fill="black"/>
<path d="M36.5 18H37.5V19H36.5V18Z" fill="black"/>
<path d="M10.5 19H11.5V20H10.5V19Z" fill="black"/>
<path d="M12.5 19H13.5V20H12.5V19Z" fill="black"/>
<path d="M14.5 19H15.5V20H14.5V19Z" fill="black"/>
<path d="M32.5 19H33.5V20H32.5V19Z" fill="black"/>
<path d="M34.5 19H35.5V20H34.5V19Z" fill="black"/>
<path d="M36.5 19H37.5V20H36.5V19Z" fill="black"/>
<path d="M10.5 20H11.5V21H10.5V20Z" fill="black"/>
<path d="M12.5 20H13.5V21H12.5V20Z" fill="black"/>
<path d="M14.5 20H15.5V21H14.5V20Z" fill="black"/>
<path d="M32.5 20H33.5V21H32.5V20Z" fill="black"/>
<path d="M34.5 20H35.5V21H34.5V20Z" fill="black"/>
<path d="M36.5 20H37.5V21H36.5V20Z" fill="black"/>
<path d="M10.5 21H11.5V22H10.5V21Z" fill="black"/>
<path d="M12.5 21H13.5V22H12.5V21Z" fill="black"/>
<path d="M14.5 21H15.5V22H14.5V21Z" fill="black"/>
<path d="M32.5 21H33.5V22H32.5V21Z" fill="black"/>
<path d="M34.5 21H35.5V22H34.5V21Z" fill="black"/>
<path d="M36.5 21H37.5V22H36.5V21Z" fill="black"/>
<path d="M10.5 22H11.5V23H10.5V22Z" fill="black"/>
<path d="M12.5 22H13.5V23H12.5V22Z" fill="black"/>
<path d="M14.5 22H15.5V23H14.5V22Z" fill="black"/>
<path d="M32.5 22H33.5V23H32.5V22Z" fill="black"/>
<path d="M34.5 22H35.5V23H34.5V22Z" fill="black"/>
<path d="M36.5 22H37.5V23H36.5V22Z" fill="black"/>
<path d="M10.5 23H11.5V24H10.5V23Z" fill="black"/>
<path d="M12.5 23H13.5V24H12.5V23Z" fill="black"/>
<path d="M14.5 23H15.5V24H14.5V23Z" fill="black"/>
<path d="M32.5 23H33.5V24H32.5V23Z" fill="black"/>
<path d="M34.5 23H35.5V24H34.5V23Z" fill="black"/>
<path d="M36.5 23H37.5V24H36.5V23Z" fill="black"/>
<path d="M10.5 24H11.5V25H10.5V24Z" fill="black"/>
<path d="M12.5 24H13.5V25H12.5V24Z" fill="black"/>
<path d="M34.5 24H35.5V25H34.5V24Z" fill="black"/>
<path d="M36.5 24H37.5V25H36.5V24Z" fill="black"/>
<path d="M10.5 25H11.5V26H10.5V25Z" fill="black"/>
<path d="M12.5 25H13.5V26H12.5V25Z" fill="black"/>
<path d="M34.5 25H35.5V26H34.5V25Z" fill="black"/>
<path d="M36.5 25H37.5V26H36.5V25Z" fill="black"/>
<path d="M10.5 26H11.5V27H10.5V26Z" fill="black"/>
<path d="M12.5 26H13.5V27H12.5V26Z" fill="black"/>
<path d="M34.5 26H35.5V27H34.5V26Z" fill="black"/>
<path d="M36.5 26H37.5V27H36.5V26Z" fill="black"/>
<path d="M10.5 27H11.5V28H10.5V27Z" fill="black"/>
<path d="M12.5 27H13.5V28H12.5V27Z" fill="black"/>
<path d="M34.5 27H35.5V28H34.5V27Z" fill="black"/>
<path d="M29.5 27H30.5V28H29.5V27Z" fill="black"/>
<path d="M29.5 29H30.5V30H29.5V29Z" fill="black"/>
<path d="M30.5 27H31.5V28H30.5V27Z" fill="black"/>
<path d="M30.5 29H31.5V30H30.5V29Z" fill="black"/>
<path d="M31.5 27H32.5V28H31.5V27Z" fill="black"/>
<path d="M31.5 29H32.5V30H31.5V29Z" fill="black"/>
<path d="M31.5 28H32.5V29H31.5V28Z" fill="black"/>
<path d="M36.5 27H37.5V28H36.5V27Z" fill="black"/>
<path d="M10.5 28H11.5V29H10.5V28Z" fill="black"/>
<path d="M12.5 28H13.5V29H12.5V28Z" fill="black"/>
<path d="M34.5 28H35.5V29H34.5V28Z" fill="black"/>
<path d="M36.5 28H37.5V29H36.5V28Z" fill="black"/>
<path d="M10.5 29H11.5V30H10.5V29Z" fill="black"/>
<path d="M12.5 29H13.5V30H12.5V29Z" fill="black"/>
<path d="M34.5 29H35.5V30H34.5V29Z" fill="black"/>
<path d="M36.5 29H37.5V30H36.5V29Z" fill="black"/>
<path d="M10.5 30H11.5V31H10.5V30Z" fill="black"/>
<path d="M12.5 30H13.5V31H12.5V30Z" fill="black"/>
<path d="M34.5 30H35.5V31H34.5V30Z" fill="black"/>
<path d="M36.5 30H37.5V31H36.5V30Z" fill="black"/>
<path d="M10.5 31H11.5V32H10.5V31Z" fill="black"/>
<path d="M12.5 31H13.5V32H12.5V31Z" fill="black"/>
<path d="M34.5 31H35.5V32H34.5V31Z" fill="black"/>
<path d="M36.5 31H37.5V32H36.5V31Z" fill="black"/>
<path d="M10.5 32H11.5V33H10.5V32Z" fill="black"/>
<path d="M36.5 32H37.5V33H36.5V32Z" fill="black"/>
<path d="M10.5 33H11.5V34H10.5V33Z" fill="black"/>
<path d="M36.5 33H37.5V34H36.5V33Z" fill="black"/>
<path d="M10.5 34H11.5V35H10.5V34Z" fill="black"/>
<path d="M36.5 34H37.5V35H36.5V34Z" fill="black"/>
<path d="M11.5 34H12.5V35H11.5V34Z" fill="black"/>
<path d="M11.5 35H12.5V36H11.5V35Z" fill="black"/>
<path d="M11.5 36H12.5V37H11.5V36Z" fill="black"/>
<path d="M11.5 37H12.5V38H11.5V37Z" fill="black"/>
<path d="M11.5 38H12.5V39H11.5V38Z" fill="black"/>
<path d="M12.5 8H13.5V9H12.5V8Z" fill="black"/>
<path d="M12.5 34H13.5V35H12.5V34Z" fill="black"/>
<path d="M12.5 39H13.5V40H12.5V39Z" fill="black"/>
<path d="M13.5 8H14.5V9H13.5V8Z" fill="black"/>
<path d="M13.5 10H14.5V11H13.5V10Z" fill="black"/>
<path d="M13.5 34H14.5V35H13.5V34Z" fill="black"/>
<path d="M13.5 32H14.5V33H13.5V32Z" fill="black"/>
<path d="M13.5 39H14.5V40H13.5V39Z" fill="black"/>
<path d="M14.5 8H15.5V9H14.5V8Z" fill="black"/>
<path d="M14.5 10H15.5V11H14.5V10Z" fill="black"/>
<path d="M14.5 34H15.5V35H14.5V34Z" fill="black"/>
<path d="M14.5 32H15.5V33H14.5V32Z" fill="black"/>
<path d="M14.5 39H15.5V40H14.5V39Z" fill="black"/>
<path d="M15.5 8H16.5V9H15.5V8Z" fill="black"/>
<path d="M15.5 10H16.5V11H15.5V10Z" fill="black"/>
<path d="M15.5 12H16.5V13H15.5V12Z" fill="black"/>
<path d="M15.5 24H16.5V25H15.5V24Z" fill="black"/>
<path d="M15.5 34H16.5V35H15.5V34Z" fill="black"/>
<path d="M15.5 32H16.5V33H15.5V32Z" fill="black"/>
<path d="M15.5 39H16.5V40H15.5V39Z" fill="black"/>
<path d="M16.5 8H17.5V9H16.5V8Z" fill="black"/>
<path d="M16.5 10H17.5V11H16.5V10Z" fill="black"/>
<path d="M16.5 12H17.5V13H16.5V12Z" fill="black"/>
<path d="M16.5 24H17.5V25H16.5V24Z" fill="black"/>
<path d="M16.5 34H17.5V35H16.5V34Z" fill="black"/>
<path d="M16.5 32H17.5V33H16.5V32Z" fill="black"/>
<path d="M16.5 39H17.5V40H16.5V39Z" fill="black"/>
<path d="M17.5 8H18.5V9H17.5V8Z" fill="black"/>
<path d="M17.5 10H18.5V11H17.5V10Z" fill="black"/>
<path d="M17.5 12H18.5V13H17.5V12Z" fill="black"/>
<path d="M17.5 24H18.5V25H17.5V24Z" fill="black"/>
<path d="M17.5 34H18.5V35H17.5V34Z" fill="black"/>
<path d="M17.5 32H18.5V33H17.5V32Z" fill="black"/>
<path d="M17.5 39H18.5V40H17.5V39Z" fill="black"/>
<path d="M18.5 8H19.5V9H18.5V8Z" fill="black"/>
<path d="M18.5 10H19.5V11H18.5V10Z" fill="black"/>
<path d="M18.5 12H19.5V13H18.5V12Z" fill="black"/>
<path d="M18.5 24H19.5V25H18.5V24Z" fill="black"/>
<path d="M18.5 34H19.5V35H18.5V34Z" fill="black"/>
<path d="M18.5 32H19.5V33H18.5V32Z" fill="black"/>
<path d="M18.5 28H19.5V29H18.5V28Z" fill="black"/>
<path d="M18.5 39H19.5V40H18.5V39Z" fill="black"/>
<path d="M19.5 8H20.5V9H19.5V8Z" fill="black"/>
<path d="M19.5 10H20.5V11H19.5V10Z" fill="black"/>
<path d="M19.5 12H20.5V13H19.5V12Z" fill="black"/>
<path d="M19.5 24H20.5V25H19.5V24Z" fill="black"/>
<path d="M19.5 34H20.5V35H19.5V34Z" fill="black"/>
<path d="M19.5 32H20.5V33H19.5V32Z" fill="black"/>
<path d="M19.5 28H20.5V29H19.5V28Z" fill="black"/>
<path d="M19.5 39H20.5V40H19.5V39Z" fill="black"/>
<path d="M20.5 8H21.5V9H20.5V8Z" fill="black"/>
<path d="M20.5 10H21.5V11H20.5V10Z" fill="black"/>
<path d="M20.5 12H21.5V13H20.5V12Z" fill="black"/>
<path d="M20.5 24H21.5V25H20.5V24Z" fill="black"/>
<path d="M20.5 34H21.5V35H20.5V34Z" fill="black"/>
<path d="M20.5 32H21.5V33H20.5V32Z" fill="black"/>
<path d="M20.5 28H21.5V29H20.5V28Z" fill="black"/>
<path d="M20.5 39H21.5V40H20.5V39Z" fill="black"/>
<path d="M21.5 8H22.5V9H21.5V8Z" fill="black"/>
<path d="M21.5 10H22.5V11H21.5V10Z" fill="black"/>
<path d="M21.5 12H22.5V13H21.5V12Z" fill="black"/>
<path d="M21.5 24H22.5V25H21.5V24Z" fill="black"/>
<path d="M21.5 34H22.5V35H21.5V34Z" fill="black"/>
<path d="M21.5 32H22.5V33H21.5V32Z" fill="black"/>
<path d="M21.5 28H22.5V29H21.5V28Z" fill="black"/>
<path d="M21.5 39H22.5V40H21.5V39Z" fill="black"/>
<path d="M22.5 8H23.5V9H22.5V8Z" fill="black"/>
<path d="M22.5 10H23.5V11H22.5V10Z" fill="black"/>
<path d="M22.5 12H23.5V13H22.5V12Z" fill="black"/>
<path d="M22.5 24H23.5V25H22.5V24Z" fill="black"/>
<path d="M22.5 34H23.5V35H22.5V34Z" fill="black"/>
<path d="M22.5 32H23.5V33H22.5V32Z" fill="black"/>
<path d="M22.5 28H23.5V29H22.5V28Z" fill="black"/>
<path d="M22.5 39H23.5V40H22.5V39Z" fill="black"/>
<path d="M23.5 8H24.5V9H23.5V8Z" fill="black"/>
<path d="M23.5 10H24.5V11H23.5V10Z" fill="black"/>
<path d="M23.5 12H24.5V13H23.5V12Z" fill="black"/>
<path d="M23.5 24H24.5V25H23.5V24Z" fill="black"/>
<path d="M23.5 34H24.5V35H23.5V34Z" fill="black"/>
<path d="M23.5 32H24.5V33H23.5V32Z" fill="black"/>
<path d="M23.5 28H24.5V29H23.5V28Z" fill="black"/>
<path d="M23.5 39H24.5V40H23.5V39Z" fill="black"/>
<path d="M24.5 8H25.5V9H24.5V8Z" fill="black"/>
<path d="M24.5 10H25.5V11H24.5V10Z" fill="black"/>
<path d="M24.5 12H25.5V13H24.5V12Z" fill="black"/>
<path d="M24.5 24H25.5V25H24.5V24Z" fill="black"/>
<path d="M24.5 34H25.5V35H24.5V34Z" fill="black"/>
<path d="M24.5 32H25.5V33H24.5V32Z" fill="black"/>
<path d="M24.5 28H25.5V29H24.5V28Z" fill="black"/>
<path d="M24.5 39H25.5V40H24.5V39Z" fill="black"/>
<path d="M25.5 8H26.5V9H25.5V8Z" fill="black"/>
<path d="M25.5 10H26.5V11H25.5V10Z" fill="black"/>
<path d="M25.5 12H26.5V13H25.5V12Z" fill="black"/>
<path d="M25.5 24H26.5V25H25.5V24Z" fill="black"/>
<path d="M25.5 34H26.5V35H25.5V34Z" fill="black"/>
<path d="M25.5 32H26.5V33H25.5V32Z" fill="black"/>
<path d="M25.5 28H26.5V29H25.5V28Z" fill="black"/>
<path d="M25.5 39H26.5V40H25.5V39Z" fill="black"/>
<path d="M26.5 8H27.5V9H26.5V8Z" fill="black"/>
<path d="M26.5 10H27.5V11H26.5V10Z" fill="black"/>
<path d="M26.5 12H27.5V13H26.5V12Z" fill="black"/>
<path d="M26.5 24H27.5V25H26.5V24Z" fill="black"/>
<path d="M26.5 34H27.5V35H26.5V34Z" fill="black"/>
<path d="M26.5 32H27.5V33H26.5V32Z" fill="black"/>
<path d="M26.5 28H27.5V29H26.5V28Z" fill="black"/>
<path d="M26.5 39H27.5V40H26.5V39Z" fill="black"/>
<path d="M27.5 8H28.5V9H27.5V8Z" fill="black"/>
<path d="M27.5 10H28.5V11H27.5V10Z" fill="black"/>
<path d="M27.5 12H28.5V13H27.5V12Z" fill="black"/>
<path d="M27.5 24H28.5V25H27.5V24Z" fill="black"/>
<path d="M27.5 34H28.5V35H27.5V34Z" fill="black"/>
<path d="M27.5 32H28.5V33H27.5V32Z" fill="black"/>
<path d="M27.5 28H28.5V29H27.5V28Z" fill="black"/>
<path d="M27.5 39H28.5V40H27.5V39Z" fill="black"/>
<path d="M28.5 8H29.5V9H28.5V8Z" fill="black"/>
<path d="M28.5 10H29.5V11H28.5V10Z" fill="black"/>
<path d="M28.5 12H29.5V13H28.5V12Z" fill="black"/>
<path d="M28.5 24H29.5V25H28.5V24Z" fill="black"/>
<path d="M28.5 34H29.5V35H28.5V34Z" fill="black"/>
<path d="M28.5 32H29.5V33H28.5V32Z" fill="black"/>
<path d="M28.5 28H29.5V29H28.5V28Z" fill="black"/>
<path d="M28.5 39H29.5V40H28.5V39Z" fill="black"/>
<path d="M29.5 8H30.5V9H29.5V8Z" fill="black"/>
<path d="M29.5 10H30.5V11H29.5V10Z" fill="black"/>
<path d="M29.5 12H30.5V13H29.5V12Z" fill="black"/>
<path d="M29.5 24H30.5V25H29.5V24Z" fill="black"/>
<path d="M29.5 34H30.5V35H29.5V34Z" fill="black"/>
<path d="M29.5 32H30.5V33H29.5V32Z" fill="black"/>
<path d="M29.5 39H30.5V40H29.5V39Z" fill="black"/>
<path d="M30.5 8H31.5V9H30.5V8Z" fill="black"/>
<path d="M30.5 10H31.5V11H30.5V10Z" fill="black"/>
<path d="M30.5 12H31.5V13H30.5V12Z" fill="black"/>
<path d="M30.5 24H31.5V25H30.5V24Z" fill="black"/>
<path d="M30.5 34H31.5V35H30.5V34Z" fill="black"/>
<path d="M30.5 32H31.5V33H30.5V32Z" fill="black"/>
<path d="M30.5 39H31.5V40H30.5V39Z" fill="black"/>
<path d="M31.5 8H32.5V9H31.5V8Z" fill="black"/>
<path d="M31.5 10H32.5V11H31.5V10Z" fill="black"/>
<path d="M31.5 12H32.5V13H31.5V12Z" fill="black"/>
<path d="M31.5 24H32.5V25H31.5V24Z" fill="black"/>
<path d="M31.5 34H32.5V35H31.5V34Z" fill="black"/>
<path d="M31.5 37H32.5V38H31.5V37Z" fill="black"/>
<path d="M32.5 37H33.5V38H32.5V37Z" fill="black"/>
<path d="M31.5 32H32.5V33H31.5V32Z" fill="black"/>
<path d="M31.5 39H32.5V40H31.5V39Z" fill="black"/>
<path d="M32.5 8H33.5V9H32.5V8Z" fill="black"/>
<path d="M32.5 10H33.5V11H32.5V10Z" fill="black"/>
<path d="M32.5 34H33.5V35H32.5V34Z" fill="black"/>
<path d="M32.5 32H33.5V33H32.5V32Z" fill="black"/>
<path d="M32.5 39H33.5V40H32.5V39Z" fill="black"/>
<path d="M33.5 8H34.5V9H33.5V8Z" fill="black"/>
<path d="M33.5 10H34.5V11H33.5V10Z" fill="black"/>
<path d="M33.5 34H34.5V35H33.5V34Z" fill="black"/>
<path d="M33.5 32H34.5V33H33.5V32Z" fill="black"/>
<path d="M33.5 39H34.5V40H33.5V39Z" fill="black"/>
<path d="M34.5 8H35.5V9H34.5V8Z" fill="black"/>
<path d="M34.5 34H35.5V35H34.5V34Z" fill="black"/>
<path d="M34.5 39H35.5V40H34.5V39Z" fill="black"/>
<path d="M35.5 8H36.5V9H35.5V8Z" fill="black"/>
<path d="M35.5 34H36.5V35H35.5V34Z" fill="black"/>
<path d="M35.5 35H36.5V36H35.5V35Z" fill="black"/>
<path d="M35.5 36H36.5V37H35.5V36Z" fill="black"/>
<path d="M35.5 37H36.5V38H35.5V37Z" fill="black"/>
<path d="M35.5 38H36.5V39H35.5V38Z" fill="black"/>
</svg>
