<svg width="48" height="48" viewBox="0 0 48 48" fill="none" xmlns="http://www.w3.org/2000/svg">
<path d="M15.5 19H16.5V20H15.5V19Z" fill="black"/>
<path d="M24.5 19H25.5V20H24.5V19Z" fill="black"/>
<path d="M17.5 17H18.5V18H17.5V17Z" fill="black"/>
<path d="M18.5 18H19.5V19H18.5V18Z" fill="black"/>
<path d="M19.5 19H20.5V20H19.5V19Z" fill="black"/>
<path d="M19.5 20H20.5V21H19.5V20Z" fill="black"/>
<path d="M19.5 21H20.5V22H19.5V21Z" fill="black"/>
<path d="M19.5 22H20.5V23H19.5V22Z" fill="black"/>
<path d="M19.5 23H20.5V24H19.5V23Z" fill="black"/>
<path d="M19.5 24H20.5V25H19.5V24Z" fill="black"/>
<path d="M19.5 25H20.5V26H19.5V25Z" fill="black"/>
<path d="M20.5 26H21.5V27H20.5V26Z" fill="black"/>
<path d="M21.5 26H22.5V27H21.5V26Z" fill="black"/>
<path d="M22.5 25H23.5V26H22.5V25Z" fill="black"/>
<path d="M19.5 29H20.5V30H19.5V29Z" fill="black"/>
<path d="M15.5 31H16.5V32H15.5V31Z" fill="black"/>
<path d="M13.5 31H14.5V32H13.5V31Z" fill="black"/>
<path d="M12.5 32H13.5V33H12.5V32Z" fill="black"/>
<path d="M12.5 33H13.5V34H12.5V33Z" fill="black"/>
<path d="M11.5 33H12.5V34H11.5V33Z" fill="black"/>
<path d="M12.5 34H13.5V35H12.5V34Z" fill="black"/>
<path d="M11.5 34H12.5V35H11.5V34Z" fill="black"/>
<path d="M10.5 34H11.5V35H10.5V34Z" fill="black"/>
<path d="M9.5 34H10.5V35H9.5V34Z" fill="black"/>
<path d="M12.5 35H13.5V36H12.5V35Z" fill="black"/>
<path d="M11.5 35H12.5V36H11.5V35Z" fill="black"/>
<path d="M10.5 35H11.5V36H10.5V35Z" fill="black"/>
<path d="M9.5 35H10.5V36H9.5V35Z" fill="black"/>
<path d="M8.5 35H9.5V36H8.5V35Z" fill="black"/>
<path d="M12.5 36H13.5V37H12.5V36Z" fill="black"/>
<path d="M11.5 36H12.5V37H11.5V36Z" fill="black"/>
<path d="M10.5 36H11.5V37H10.5V36Z" fill="black"/>
<path d="M9.5 36H10.5V37H9.5V36Z" fill="black"/>
<path d="M8.5 36H9.5V37H8.5V36Z" fill="black"/>
<path d="M12.5 37H13.5V38H12.5V37Z" fill="black"/>
<path d="M13.5 37H14.5V38H13.5V37Z" fill="black"/>
<path d="M11.5 37H12.5V38H11.5V37Z" fill="black"/>
<path d="M10.5 37H11.5V38H10.5V37Z" fill="black"/>
<path d="M9.5 37H10.5V38H9.5V37Z" fill="black"/>
<path d="M8.5 37H9.5V38H8.5V37Z" fill="black"/>
<path d="M12.5 38H13.5V39H12.5V38Z" fill="black"/>
<path d="M13.5 38H14.5V39H13.5V38Z" fill="black"/>
<path d="M11.5 38H12.5V39H11.5V38Z" fill="black"/>
<path d="M10.5 38H11.5V39H10.5V38Z" fill="black"/>
<path d="M9.5 38H10.5V39H9.5V38Z" fill="black"/>
<path d="M8.5 38H9.5V39H8.5V38Z" fill="black"/>
<path d="M12.5 39H13.5V40H12.5V39Z" fill="black"/>
<path d="M13.5 39H14.5V40H13.5V39Z" fill="black"/>
<path d="M14.5 39H15.5V40H14.5V39Z" fill="black"/>
<path d="M11.5 39H12.5V40H11.5V39Z" fill="black"/>
<path d="M10.5 39H11.5V40H10.5V39Z" fill="black"/>
<path d="M9.5 39H10.5V40H9.5V39Z" fill="black"/>
<path d="M8.5 39H9.5V40H8.5V39Z" fill="black"/>
<path d="M14.5 30H15.5V31H14.5V30Z" fill="black"/>
<path d="M14.5 29H15.5V30H14.5V29Z" fill="black"/>
<path d="M13.5 29H14.5V30H13.5V29Z" fill="black"/>
<path d="M13.5 28H14.5V29H13.5V28Z" fill="black"/>
<path d="M12.5 26H13.5V27H12.5V26Z" fill="black"/>
<path d="M11.5 24H12.5V25H11.5V24Z" fill="black"/>
<path d="M11.5 22H12.5V23H11.5V22Z" fill="black"/>
<path d="M12.5 28H13.5V29H12.5V28Z" fill="black"/>
<path d="M11.5 26H12.5V27H11.5V26Z" fill="black"/>
<path d="M10.5 24H11.5V25H10.5V24Z" fill="black"/>
<path d="M10.5 22H11.5V23H10.5V22Z" fill="black"/>
<path d="M11.5 28H12.5V29H11.5V28Z" fill="black"/>
<path d="M10.5 26H11.5V27H10.5V26Z" fill="black"/>
<path d="M9.5 24H10.5V25H9.5V24Z" fill="black"/>
<path d="M9.5 22H10.5V23H9.5V22Z" fill="black"/>
<path d="M11.5 27H12.5V28H11.5V27Z" fill="black"/>
<path d="M10.5 25H11.5V26H10.5V25Z" fill="black"/>
<path d="M9.5 23H10.5V24H9.5V23Z" fill="black"/>
<path d="M9.5 21H10.5V22H9.5V21Z" fill="black"/>
<path d="M9.5 20H10.5V21H9.5V20Z" fill="black"/>
<path d="M9.5 19H10.5V20H9.5V19Z" fill="black"/>
<path d="M9.5 18H10.5V19H9.5V18Z" fill="black"/>
<path d="M10.5 17H11.5V18H10.5V17Z" fill="black"/>
<path d="M10.5 16H11.5V17H10.5V16Z" fill="black"/>
<path d="M10.5 15H11.5V16H10.5V15Z" fill="black"/>
<path d="M11.5 14H12.5V15H11.5V14Z" fill="black"/>
<path d="M11.5 13H12.5V14H11.5V13Z" fill="black"/>
<path d="M12.5 12H13.5V13H12.5V12Z" fill="black"/>
<path d="M12.5 11H13.5V12H12.5V11Z" fill="black"/>
<path d="M13.5 10H14.5V11H13.5V10Z" fill="black"/>
<path d="M14.5 9H15.5V10H14.5V9Z" fill="black"/>
<path d="M17.5 8H18.5V9H17.5V8Z" fill="black"/>
<path d="M14.5 18H15.5V19H14.5V18Z" fill="black"/>
<path d="M14.5 17H15.5V18H14.5V17Z" fill="black"/>
<path d="M14.5 16H15.5V17H14.5V16Z" fill="black"/>
<path d="M14.5 15H15.5V16H14.5V15Z" fill="black"/>
<path d="M14.5 14H15.5V15H14.5V14Z" fill="black"/>
<path d="M14.5 13H15.5V14H14.5V13Z" fill="black"/>
<path d="M15.5 12H16.5V13H15.5V12Z" fill="black"/>
<path d="M15.5 11H16.5V12H15.5V11Z" fill="black"/>
<path d="M16.5 10H17.5V11H16.5V10Z" fill="black"/>
<path d="M17.5 9H18.5V10H17.5V9Z" fill="black"/>
<path d="M20.5 8H21.5V9H20.5V8Z" fill="black"/>
<path d="M20.5 9H21.5V10H20.5V9Z" fill="black"/>
<path d="M20.5 10H21.5V11H20.5V10Z" fill="black"/>
<path d="M20.5 11H21.5V12H20.5V11Z" fill="black"/>
<path d="M20.5 12H21.5V13H20.5V12Z" fill="black"/>
<path d="M21.5 13H22.5V14H21.5V13Z" fill="black"/>
<path d="M20.5 14H21.5V15H20.5V14Z" fill="black"/>
<path d="M18.5 15H19.5V16H18.5V15Z" fill="black"/>
<path d="M18.5 14H19.5V15H18.5V14Z" fill="black"/>
<path d="M18.5 13H19.5V14H18.5V13Z" fill="black"/>
<path d="M19.5 12H20.5V13H19.5V12Z" fill="black"/>
<path d="M19.5 11H20.5V12H19.5V11Z" fill="black"/>
<path d="M19.5 11H20.5V12H19.5V11Z" fill="black"/>
<path d="M19.5 10H20.5V11H19.5V10Z" fill="black"/>
<path d="M19.5 13H20.5V14H19.5V13Z" fill="black"/>
<path d="M8.5 21H9.5V22H8.5V21Z" fill="black"/>
<path d="M8.5 20H9.5V21H8.5V20Z" fill="black"/>
<path d="M8.5 19H9.5V20H8.5V19Z" fill="black"/>
<path d="M8.5 18H9.5V19H8.5V18Z" fill="black"/>
<path d="M9.5 17H10.5V18H9.5V17Z" fill="black"/>
<path d="M9.5 16H10.5V17H9.5V16Z" fill="black"/>
<path d="M9.5 15H10.5V16H9.5V15Z" fill="black"/>
<path d="M10.5 14H11.5V15H10.5V14Z" fill="black"/>
<path d="M10.5 13H11.5V14H10.5V13Z" fill="black"/>
<path d="M11.5 12H12.5V13H11.5V12Z" fill="black"/>
<path d="M11.5 11H12.5V12H11.5V11Z" fill="black"/>
<path d="M12.5 10H13.5V11H12.5V10Z" fill="black"/>
<path d="M13.5 9H14.5V10H13.5V9Z" fill="black"/>
<path d="M16.5 8H17.5V9H16.5V8Z" fill="black"/>
<path d="M13.5 18H14.5V19H13.5V18Z" fill="black"/>
<path d="M13.5 17H14.5V18H13.5V17Z" fill="black"/>
<path d="M13.5 16H14.5V17H13.5V16Z" fill="black"/>
<path d="M13.5 15H14.5V16H13.5V15Z" fill="black"/>
<path d="M12.5 27H13.5V28H12.5V27Z" fill="black"/>
<path d="M11.5 25H12.5V26H11.5V25Z" fill="black"/>
<path d="M10.5 23H11.5V24H10.5V23Z" fill="black"/>
<path d="M10.5 21H11.5V22H10.5V21Z" fill="black"/>
<path d="M10.5 20H11.5V21H10.5V20Z" fill="black"/>
<path d="M10.5 19H11.5V20H10.5V19Z" fill="black"/>
<path d="M10.5 18H11.5V19H10.5V18Z" fill="black"/>
<path d="M11.5 17H12.5V18H11.5V17Z" fill="black"/>
<path d="M11.5 16H12.5V17H11.5V16Z" fill="black"/>
<path d="M11.5 15H12.5V16H11.5V15Z" fill="black"/>
<path d="M12.5 14H13.5V15H12.5V14Z" fill="black"/>
<path d="M12.5 13H13.5V14H12.5V13Z" fill="black"/>
<path d="M13.5 12H14.5V13H13.5V12Z" fill="black"/>
<path d="M13.5 11H14.5V12H13.5V11Z" fill="black"/>
<path d="M14.5 10H15.5V11H14.5V10Z" fill="black"/>
<path d="M15.5 9H16.5V10H15.5V9Z" fill="black"/>
<path d="M18.5 8H19.5V9H18.5V8Z" fill="black"/>
<path d="M15.5 18H16.5V19H15.5V18Z" fill="black"/>
<path d="M15.5 17H16.5V18H15.5V17Z" fill="black"/>
<path d="M15.5 16H16.5V17H15.5V16Z" fill="black"/>
<path d="M15.5 15H16.5V16H15.5V15Z" fill="black"/>
<path d="M15.5 13H16.5V14H15.5V13Z" fill="black"/>
<path d="M15.5 14H16.5V15H15.5V14Z" fill="black"/>
<path d="M16.5 12H17.5V13H16.5V12Z" fill="black"/>
<path d="M16.5 11H17.5V12H16.5V11Z" fill="black"/>
<path d="M17.5 10H18.5V11H17.5V10Z" fill="black"/>
<path d="M18.5 9H19.5V10H18.5V9Z" fill="black"/>
<path d="M21.5 8H22.5V9H21.5V8Z" fill="black"/>
<path d="M21.5 9H22.5V10H21.5V9Z" fill="black"/>
<path d="M21.5 10H22.5V11H21.5V10Z" fill="black"/>
<path d="M21.5 11H22.5V12H21.5V11Z" fill="black"/>
<path d="M21.5 12H22.5V13H21.5V12Z" fill="black"/>
<path d="M20.5 13H21.5V14H20.5V13Z" fill="black"/>
<path d="M19.5 14H20.5V15H19.5V14Z" fill="black"/>
<path d="M17.5 15H18.5V16H17.5V15Z" fill="black"/>
<path d="M17.5 14H18.5V15H17.5V14Z" fill="black"/>
<path d="M18.5 12H19.5V13H18.5V12Z" fill="black"/>
<path d="M17.5 13H18.5V14H17.5V13Z" fill="black"/>
<path d="M18.5 11H19.5V12H18.5V11Z" fill="black"/>
<path d="M18.5 11H19.5V12H18.5V11Z" fill="black"/>
<path d="M13.5 27H14.5V28H13.5V27Z" fill="black"/>
<path d="M12.5 25H13.5V26H12.5V25Z" fill="black"/>
<path d="M11.5 23H12.5V24H11.5V23Z" fill="black"/>
<path d="M11.5 21H12.5V22H11.5V21Z" fill="black"/>
<path d="M11.5 20H12.5V21H11.5V20Z" fill="black"/>
<path d="M11.5 19H12.5V20H11.5V19Z" fill="black"/>
<path d="M11.5 18H12.5V19H11.5V18Z" fill="black"/>
<path d="M12.5 17H13.5V18H12.5V17Z" fill="black"/>
<path d="M12.5 18H13.5V19H12.5V18Z" fill="black"/>
<path d="M12.5 19H13.5V20H12.5V19Z" fill="black"/>
<path d="M12.5 20H13.5V21H12.5V20Z" fill="black"/>
<path d="M12.5 16H13.5V17H12.5V16Z" fill="black"/>
<path d="M12.5 15H13.5V16H12.5V15Z" fill="black"/>
<path d="M13.5 14H14.5V15H13.5V14Z" fill="black"/>
<path d="M13.5 13H14.5V14H13.5V13Z" fill="black"/>
<path d="M14.5 12H15.5V13H14.5V12Z" fill="black"/>
<path d="M14.5 11H15.5V12H14.5V11Z" fill="black"/>
<path d="M15.5 10H16.5V11H15.5V10Z" fill="black"/>
<path d="M16.5 9H17.5V10H16.5V9Z" fill="black"/>
<path d="M19.5 8H20.5V9H19.5V8Z" fill="black"/>
<path d="M16.5 18H17.5V19H16.5V18Z" fill="black"/>
<path d="M16.5 17H17.5V18H16.5V17Z" fill="black"/>
<path d="M16.5 16H17.5V17H16.5V16Z" fill="black"/>
<path d="M16.5 13H17.5V14H16.5V13Z" fill="black"/>
<path d="M16.5 15H17.5V16H16.5V15Z" fill="black"/>
<path d="M16.5 14H17.5V15H16.5V14Z" fill="black"/>
<path d="M17.5 12H18.5V13H17.5V12Z" fill="black"/>
<path d="M17.5 11H18.5V12H17.5V11Z" fill="black"/>
<path d="M18.5 10H19.5V11H18.5V10Z" fill="black"/>
<path d="M19.5 9H20.5V10H19.5V9Z" fill="black"/>
<path d="M22.5 8H23.5V9H22.5V8Z" fill="black"/>
<path d="M22.5 9H23.5V10H22.5V9Z" fill="black"/>
<path d="M22.5 10H23.5V11H22.5V10Z" fill="black"/>
<path d="M22.5 11H23.5V12H22.5V11Z" fill="black"/>
<path d="M22.5 12H23.5V13H22.5V12Z" fill="black"/>
<path d="M22.5 13H23.5V14H22.5V13Z" fill="black"/>
<path d="M15.5 32H16.5V33H15.5V32Z" fill="black"/>
<path d="M15.5 33H16.5V34H15.5V33Z" fill="black"/>
<path d="M16.5 34H17.5V35H16.5V34Z" fill="black"/>
<path d="M17.5 35H18.5V36H17.5V35Z" fill="black"/>
<path d="M18.5 36H19.5V37H18.5V36Z" fill="black"/>
<path d="M19.5 36H20.5V37H19.5V36Z" fill="black"/>
<path d="M22.5 36H23.5V37H22.5V36Z" fill="black"/>
<path d="M23.5 36H24.5V37H23.5V36Z" fill="black"/>
<path d="M24.5 35H25.5V36H24.5V35Z" fill="black"/>
<path d="M25.5 34H26.5V35H25.5V34Z" fill="black"/>
<path d="M25.5 33H26.5V34H25.5V33Z" fill="black"/>
<path d="M25.5 32H26.5V33H25.5V32Z" fill="black"/>
<path d="M24.5 33H25.5V34H24.5V33Z" fill="black"/>
<path d="M23.5 33H24.5V34H23.5V33Z" fill="black"/>
<path d="M22.5 34H23.5V35H22.5V34Z" fill="black"/>
<path d="M21.5 34H22.5V35H21.5V34Z" fill="black"/>
<path d="M20.5 34H21.5V35H20.5V34Z" fill="black"/>
<path d="M19.5 34H20.5V35H19.5V34Z" fill="black"/>
<path d="M18.5 33H19.5V34H18.5V33Z" fill="black"/>
<path d="M17.5 33H18.5V34H17.5V33Z" fill="black"/>
<path d="M16.5 32H17.5V33H16.5V32Z" fill="black"/>
<path d="M26.5 31H27.5V32H26.5V31Z" fill="black"/>
<path d="M26.5 30H27.5V31H26.5V30Z" fill="black"/>
<path d="M27.5 29H28.5V30H27.5V29Z" fill="black"/>
<path d="M27.5 28H28.5V29H27.5V28Z" fill="black"/>
<path d="M27.5 27H28.5V28H27.5V27Z" fill="black"/>
<path d="M28.5 26H29.5V27H28.5V26Z" fill="black"/>
<path d="M29.5 24H30.5V25H29.5V24Z" fill="black"/>
<path d="M28.5 22H29.5V23H28.5V22Z" fill="black"/>
<path d="M27.5 20H28.5V21H27.5V20Z" fill="black"/>
<path d="M27.5 18H28.5V19H27.5V18Z" fill="black"/>
<path d="M26.5 16H27.5V17H26.5V16Z" fill="black"/>
<path d="M25.5 14H26.5V15H25.5V14Z" fill="black"/>
<path d="M24.5 12H25.5V13H24.5V12Z" fill="black"/>
<path d="M25.5 10H26.5V11H25.5V10Z" fill="black"/>
<path d="M27.5 11H28.5V12H27.5V11Z" fill="black"/>
<path d="M28.5 13H29.5V14H28.5V13Z" fill="black"/>
<path d="M29.5 15H30.5V16H29.5V15Z" fill="black"/>
<path d="M30.5 17H31.5V18H30.5V17Z" fill="black"/>
<path d="M30.5 19H31.5V20H30.5V19Z" fill="black"/>
<path d="M30.5 21H31.5V22H30.5V21Z" fill="black"/>
<path d="M30.5 22H31.5V23H30.5V22Z" fill="black"/>
<path d="M28.5 25H29.5V26H28.5V25Z" fill="black"/>
<path d="M29.5 23H30.5V24H29.5V23Z" fill="black"/>
<path d="M28.5 21H29.5V22H28.5V21Z" fill="black"/>
<path d="M27.5 19H28.5V20H27.5V19Z" fill="black"/>
<path d="M27.5 17H28.5V18H27.5V17Z" fill="black"/>
<path d="M26.5 15H27.5V16H26.5V15Z" fill="black"/>
<path d="M25.5 13H26.5V14H25.5V13Z" fill="black"/>
<path d="M24.5 11H25.5V12H24.5V11Z" fill="black"/>
<path d="M25.5 9H26.5V10H25.5V9Z" fill="black"/>
<path d="M27.5 10H28.5V11H27.5V10Z" fill="black"/>
<path d="M28.5 12H29.5V13H28.5V12Z" fill="black"/>
<path d="M29.5 14H30.5V15H29.5V14Z" fill="black"/>
<path d="M30.5 16H31.5V17H30.5V16Z" fill="black"/>
<path d="M30.5 18H31.5V19H30.5V18Z" fill="black"/>
<path d="M30.5 20H31.5V21H30.5V20Z" fill="black"/>
<path d="M27.5 30H28.5V31H27.5V30Z" fill="black"/>
<path d="M28.5 29H29.5V30H28.5V29Z" fill="black"/>
<path d="M28.5 28H29.5V29H28.5V28Z" fill="black"/>
<path d="M28.5 27H29.5V28H28.5V27Z" fill="black"/>
<path d="M29.5 26H30.5V27H29.5V26Z" fill="black"/>
<path d="M30.5 24H31.5V25H30.5V24Z" fill="black"/>
<path d="M29.5 22H30.5V23H29.5V22Z" fill="black"/>
<path d="M28.5 20H29.5V21H28.5V20Z" fill="black"/>
<path d="M28.5 18H29.5V19H28.5V18Z" fill="black"/>
<path d="M27.5 16H28.5V17H27.5V16Z" fill="black"/>
<path d="M26.5 14H27.5V15H26.5V14Z" fill="black"/>
<path d="M25.5 12H26.5V13H25.5V12Z" fill="black"/>
<path d="M26.5 10H27.5V11H26.5V10Z" fill="black"/>
<path d="M28.5 11H29.5V12H28.5V11Z" fill="black"/>
<path d="M29.5 13H30.5V14H29.5V13Z" fill="black"/>
<path d="M30.5 15H31.5V16H30.5V15Z" fill="black"/>
<path d="M31.5 17H32.5V18H31.5V17Z" fill="black"/>
<path d="M31.5 19H32.5V20H31.5V19Z" fill="black"/>
<path d="M31.5 21H32.5V22H31.5V21Z" fill="black"/>
<path d="M31.5 22H32.5V23H31.5V22Z" fill="black"/>
<path d="M29.5 27H30.5V28H29.5V27Z" fill="black"/>
<path d="M29.5 25H30.5V26H29.5V25Z" fill="black"/>
<path d="M30.5 23H31.5V24H30.5V23Z" fill="black"/>
<path d="M29.5 21H30.5V22H29.5V21Z" fill="black"/>
<path d="M29.5 20H30.5V21H29.5V20Z" fill="black"/>
<path d="M29.5 19H30.5V20H29.5V19Z" fill="black"/>
<path d="M29.5 18H30.5V19H29.5V18Z" fill="black"/>
<path d="M29.5 17H30.5V18H29.5V17Z" fill="black"/>
<path d="M29.5 16H30.5V17H29.5V16Z" fill="black"/>
<path d="M28.5 16H29.5V17H28.5V16Z" fill="black"/>
<path d="M28.5 15H29.5V16H28.5V15Z" fill="black"/>
<path d="M28.5 14H29.5V15H28.5V14Z" fill="black"/>
<path d="M27.5 14H28.5V15H27.5V14Z" fill="black"/>
<path d="M27.5 13H28.5V14H27.5V13Z" fill="black"/>
<path d="M27.5 12H28.5V13H27.5V12Z" fill="black"/>
<path d="M26.5 12H27.5V13H26.5V12Z" fill="black"/>
<path d="M26.5 11H27.5V12H26.5V11Z" fill="black"/>
<path d="M26.5 17H27.5V18H26.5V17Z" fill="black"/>
<path d="M24.5 13H25.5V14H24.5V13Z" fill="black"/>
<path d="M23.5 11H24.5V12H23.5V11Z" fill="black"/>
<path d="M23.5 10H24.5V11H23.5V10Z" fill="black"/>
<path d="M23.5 9H24.5V10H23.5V9Z" fill="black"/>
<path d="M24.5 10H25.5V11H24.5V10Z" fill="black"/>
<path d="M27.5 9H28.5V10H27.5V9Z" fill="black"/>
<path d="M28.5 19H29.5V20H28.5V19Z" fill="black"/>
<path d="M28.5 17H29.5V18H28.5V17Z" fill="black"/>
<path d="M27.5 15H28.5V16H27.5V15Z" fill="black"/>
<path d="M26.5 13H27.5V14H26.5V13Z" fill="black"/>
<path d="M25.5 11H26.5V12H25.5V11Z" fill="black"/>
<path d="M26.5 9H27.5V10H26.5V9Z" fill="black"/>
<path d="M28.5 10H29.5V11H28.5V10Z" fill="black"/>
<path d="M29.5 12H30.5V13H29.5V12Z" fill="black"/>
<path d="M30.5 14H31.5V15H30.5V14Z" fill="black"/>
<path d="M31.5 16H32.5V17H31.5V16Z" fill="black"/>
<path d="M31.5 18H32.5V19H31.5V18Z" fill="black"/>
<path d="M31.5 20H32.5V21H31.5V20Z" fill="black"/>
<path d="M27.5 32H28.5V33H27.5V32Z" fill="black"/>
<path d="M28.5 33H29.5V34H28.5V33Z" fill="black"/>
<path d="M29.5 34H30.5V35H29.5V34Z" fill="black"/>
<path d="M30.5 34H31.5V35H30.5V34Z" fill="black"/>
<path d="M31.5 35H32.5V36H31.5V35Z" fill="black"/>
<path d="M32.5 35H33.5V36H32.5V35Z" fill="black"/>
<path d="M33.5 36H34.5V37H33.5V36Z" fill="black"/>
<path d="M34.5 36H35.5V37H34.5V36Z" fill="black"/>
<path d="M35.5 37H36.5V38H35.5V37Z" fill="black"/>
<path d="M35.5 38H36.5V39H35.5V38Z" fill="black"/>
<path d="M36.5 37H37.5V38H36.5V37Z" fill="black"/>
<path d="M36.5 38H37.5V39H36.5V38Z" fill="black"/>
<path d="M37.5 38H38.5V39H37.5V38Z" fill="black"/>
<path d="M38.5 39H39.5V40H38.5V39Z" fill="black"/>
<path d="M37.5 39H38.5V40H37.5V39Z" fill="black"/>
<path d="M36.5 39H37.5V40H36.5V39Z" fill="black"/>
<path d="M35.5 39H36.5V40H35.5V39Z" fill="black"/>
<path d="M34.5 39H35.5V40H34.5V39Z" fill="black"/>
<path d="M33.5 39H34.5V40H33.5V39Z" fill="black"/>
<path d="M32.5 39H33.5V40H32.5V39Z" fill="black"/>
<path d="M31.5 39H32.5V40H31.5V39Z" fill="black"/>
<path d="M30.5 39H31.5V40H30.5V39Z" fill="black"/>
<path d="M29.5 39H30.5V40H29.5V39Z" fill="black"/>
<path d="M28.5 39H29.5V40H28.5V39Z" fill="black"/>
<path d="M27.5 39H28.5V40H27.5V39Z" fill="black"/>
<path d="M26.5 39H27.5V40H26.5V39Z" fill="black"/>
<path d="M27.5 38H28.5V39H27.5V38Z" fill="black"/>
<path d="M27.5 37H28.5V38H27.5V37Z" fill="black"/>
<path d="M28.5 34H29.5V35H28.5V34Z" fill="black"/>
<path d="M28.5 35H29.5V36H28.5V35Z" fill="black"/>
<path d="M29.5 35H30.5V36H29.5V35Z" fill="black"/>
<path d="M30.5 35H31.5V36H30.5V35Z" fill="black"/>
<path d="M28.5 36H29.5V37H28.5V36Z" fill="black"/>
<path d="M28.5 37H29.5V38H28.5V37Z" fill="black"/>
<path d="M28.5 38H29.5V39H28.5V38Z" fill="black"/>
<path d="M29.5 37H30.5V38H29.5V37Z" fill="black"/>
<path d="M29.5 38H30.5V39H29.5V38Z" fill="black"/>
<path d="M30.5 37H31.5V38H30.5V37Z" fill="black"/>
<path d="M30.5 38H31.5V39H30.5V38Z" fill="black"/>
<path d="M31.5 37H32.5V38H31.5V37Z" fill="black"/>
<path d="M31.5 38H32.5V39H31.5V38Z" fill="black"/>
<path d="M32.5 37H33.5V38H32.5V37Z" fill="black"/>
<path d="M32.5 38H33.5V39H32.5V38Z" fill="black"/>
<path d="M33.5 37H34.5V38H33.5V37Z" fill="black"/>
<path d="M33.5 38H34.5V39H33.5V38Z" fill="black"/>
<path d="M34.5 37H35.5V38H34.5V37Z" fill="black"/>
<path d="M34.5 38H35.5V39H34.5V38Z" fill="black"/>
<path d="M29.5 36H30.5V37H29.5V36Z" fill="black"/>
<path d="M30.5 36H31.5V37H30.5V36Z" fill="black"/>
<path d="M31.5 36H32.5V37H31.5V36Z" fill="black"/>
<path d="M32.5 36H33.5V37H32.5V36Z" fill="black"/>
<path d="M20.5 37H21.5V38H20.5V37Z" fill="black"/>
<path d="M21.5 37H22.5V38H21.5V37Z" fill="black"/>
<path d="M18.5 38H19.5V39H18.5V38Z" fill="black"/>
<path d="M17.5 39H18.5V40H17.5V39Z" fill="black"/>
<path d="M19.5 38H20.5V39H19.5V38Z" fill="black"/>
<path d="M19.5 39H20.5V40H19.5V39Z" fill="black"/>
<path d="M20.5 38H21.5V39H20.5V38Z" fill="black"/>
<path d="M20.5 39H21.5V40H20.5V39Z" fill="black"/>
<path d="M21.5 38H22.5V39H21.5V38Z" fill="black"/>
<path d="M21.5 39H22.5V40H21.5V39Z" fill="black"/>
<path d="M22.5 38H23.5V39H22.5V38Z" fill="black"/>
<path d="M22.5 39H23.5V40H22.5V39Z" fill="black"/>
<path d="M20.5 29H21.5V30H20.5V29Z" fill="black"/>
<path d="M21.5 29H22.5V30H21.5V29Z" fill="black"/>
<path d="M22.5 29H23.5V30H22.5V29Z" fill="black"/>
<path d="M23.5 28H24.5V29H23.5V28Z" fill="black"/>
<path d="M21.5 18H22.5V19H21.5V18Z" fill="black"/>
<path d="M22.5 18H23.5V19H22.5V18Z" fill="black"/>
<path d="M22.5 17H23.5V18H22.5V17Z" fill="black"/>
<path d="M23.5 17H24.5V18H23.5V17Z" fill="black"/>
<path d="M24.5 17H25.5V18H24.5V17Z" fill="black"/>
<path d="M25.5 17H26.5V18H25.5V17Z" fill="black"/>
</svg>
